<?xml version="1.0" encoding="UTF-8"?>
<svg id="OBJECTS" xmlns="http://www.w3.org/2000/svg" version="1.1" viewBox="0 0 1239.5 403.1">
  <!-- Generator: Adobe Illustrator 29.6.1, SVG Export Plug-In . SVG Version: 2.1.1 Build 9)  -->
  <defs>
    <style>
      .st0 {
        fill: #fff;
      }
    </style>
  </defs>
  <g>
    <path d="M1158.5,167.7l8.4-48.1-9.1-28.2-13-14.2-19.4-9.1-6.4-7-13-6.1-124.6-1.6-13,10.6-.4,2.5-.6-.3-6.8-7.3-12.8-5.9-108.2-1.2-8.2,2.6-9.6,7.4h-3.5s-8.8-10.3-8.8-10.3l-139.7-1.2-12.8,10.8-1.4,9.3-9.2-7.1v-.2c0,0-17.3-13.1-17.3-13.1l-44.5-.3-10.8,5.7-17.4,27.1-19.3-22.7h-4.6s-8.9-10.4-8.9-10.4l-130.9-.6-12.7,11.1-.5,3.3-2.4-1.1-6.6-7.2-13.1-6.2-123.5-.2-12.6,11.2-.3,2.3h0s-6.5-7.2-6.5-7.2l-13.1-6.3h-108.1s-8,2.8-8,2.8l-17.7,14.7-4.5,8.6-10.6,87.2,3.1,9.4-1.5,12.1,9.6,29,12.9,14.7,26,12.6,107.5-1,15.8-5.7,7.2-6.1,9.9,11.5,45.7-.4,22.9-20.5,16.4,12.9-4.8,35.8,3.1,9-1.1,7.9-4.8,4.3-3,22.4,3.1,9.1-1.6,12.1,10,29.4,13.2,14.3,25.1,11.6,106.4-1.4,15.6-5.6,8.1-6.6,24.3,11.6,107.4-1.2,15.9-5.6,7.6-6.3,25,11.4,106.6-.9,15.8-5.4,7.8-6.2,9.7,11.3,45.8-.3,23.4-19.9,25.1,19.6,45.8-.2,7.9-11.4,9.8,11.4,130.1-.5,25.2-20.5,2.1-10.6v-.7c.1,0,3.4-19.4,3.4-19.4l-22.4-25.9.6-3.5h5.1s25.4-20.9,25.4-20.9l2.3-13.4,3-16.3-17.5-20.5,18.6-26-4.7-16.5,3-2.2,9.4-15.7ZM794.4,205.7l3.2-20.4,6.3,18.9-4.3,3.7-.4,2.5-.6-.3-4.2-4.4Z"/>
    <g>
      <polygon class="st0" points="213.9 104.2 217.2 79.1 204.2 64.7 96.2 64.9 78.5 79.5 67.8 166.6 80.7 181.4 188.4 180.6 205.9 165.8 209.1 140.9 163.2 141.1 162.6 146.3 158.9 149.3 118.8 149.5 116.1 146.5 121.9 99.3 125.4 96.3 165.7 96.2 168.5 99.2 168 104.4 213.9 104.2"/>
      <path class="st0" d="M361.6,179.7l-11.2-36.6,16.4-13.5,6.8-50.2-13.3-14.6h-123.5c0-.1-15.4,115.5-15.4,115.5l45.8-.2,4.9-35.6h32.6c0,0,11,35.4,11,35.4l45.9-.2ZM278.5,96.1h44.1s2.4,2.4,2.4,2.4l-1.7,12-3.1,2.5h-44c0,0,2.3-16.9,2.3-16.9Z"/>
      <polygon class="st0" points="511.2 168.4 514 148.4 429.6 148.4 431.3 136 488.8 136 493 108.1 435.4 108.1 437 96.1 521.5 96.3 523.6 82.3 526.2 65.4 395.3 65 379.2 179.7 509.4 179.4 511.2 168.4"/>
      <path class="st0" d="M563.9,179.3l7.4-12.2h45.6s3.7,12.2,3.7,12.2h49.4s-38.4-113.3-38.4-113.3l-44.4-.3-72.4,113.6h49.2ZM601.7,116.9l6.5,21.4h-19.4s13-21.4,13-21.4Z"/>
      <polygon class="st0" points="701.3 179.4 747.4 179.4 760.3 97.4 806.9 97.8 811.9 67.3 672.3 66.2 667.5 96.9 714 97.2 701.3 179.4"/>
      <path class="st0" d="M950.1,68.7l-108.1-1.1-18.2,14.1-13.2,83.6,13.3,14.3,107.6.4,18.4-14.1,13.7-83-13.5-14.3ZM906.7,146.8l-3.8,2.8-40.5-.2-2.6-2.9,7.2-45.4,3.6-2.8,40.6.3,2.8,2.9-7.3,45.3Z"/>
      <path class="st0" d="M1121.4,84.8l-13-14.2-124.5-1.5-18.8,111.2,46.2.3,6-34.3,32.8.3,10.1,34.3,46.3.3-10.2-35.4,16.9-12.8,8.3-48.2ZM1025,99.7l44.4.5,2.4,2.4-2,11.5-3.1,2.3-44.4-.4,2.8-16.3Z"/>
      <polygon class="st0" points="362 213.7 344.3 228.4 338.6 270.8 350.9 284.2 426.1 283.5 428.5 286 427.1 295.6 424.2 298.1 383.1 298.5 380.7 296.1 381.5 291.6 335.8 292 332.8 314.4 346 328.7 452.5 327.6 470.5 312.9 476.4 270.3 464.1 257.1 388.7 257.6 386.3 255.2 387.6 245.8 390.7 243.3 431.9 243.1 434.1 245.5 433.4 250 479.3 249.7 482.4 227.5 469.2 213.2 362 213.7"/>
      <polygon class="st0" points="518 213 500.1 227.4 488.1 312.8 500.7 327.2 608.3 326.3 626 311.7 629.6 287.4 583.8 287.7 583.1 292.7 579.4 295.7 539.2 295.9 536.6 293 543.1 246.8 546.7 243.8 587 243.7 589.7 246.6 589.1 251.6 635 251.5 638.7 226.9 625.9 212.8 518 213"/>
      <path class="st0" d="M781.5,212.8h-107.3s-18,14.4-18,14.4l-12.6,84.5,13.3,14.3,106.8-.6,18.2-14.4,13.1-83.9-13.4-14.3ZM739,292l-3.8,2.9-40.2.2-2.6-2.9,6.8-45.9,3.6-2.9h40.3c0,0,2.8,2.8,2.8,2.8l-6.9,45.7Z"/>
      <path class="st0" d="M815,212.8l-17.9,112.4,45.9-.2,5.7-34.6h32.6c0,0,10.2,34.4,10.2,34.4h45.9c0-.1-10.4-35.7-10.4-35.7l16.7-13.1,7.9-48.7-13-14.2-123.6-.3ZM856,243.3h44.1s2.4,2.4,2.4,2.4l-1.9,11.7-3.1,2.4h-44.1s2.6-16.5,2.6-16.5Z"/>
      <polygon class="st0" points="955 324.7 1085.4 324.5 1087.4 313.9 1090.6 294.5 1006.1 294.4 1008.1 282.3 1065.7 282.4 1070.5 255.3 1012.8 255.2 1014.6 243.6 1099.3 243.9 1101.6 230.3 1104.6 213.9 973.7 213.2 955 324.7"/>
    </g>
  </g>
  <g>
    <path class="st0" d="M1123.3,123.6c-.9,0-1.4-.2-1.5-.3-1.2-1.4-.8-10.5-.4-16.5.5-9.8,1-20-1.7-25.3-.7-1.3-2.4-3.3-9.8-7.9-1.5-.9-3.3-1.9-5.9-3.1-1.7-.8-3.6-1.6-5.4-2.4-5-2.2-10.2-4.5-12.6-6.6-.4-.3-.6-.6-.8-.8.3-.1.8-.3,1.6-.4.3,0,.6-.1,1-.1.8,0,1.7-.1,2.8-.1,2.8,0,6.1.3,9.6.7,3.9.4,7.9.8,11.8.8,6.9,0,11.7-1.3,14.8-4.2,4.1-3.7,5.3-7.3,6.5-11,.2-.5.4-1,.6-1.4.1-.4.3-.9.5-1.4.5-1,1.1-2.9,2-5.6,1.3-3.8,4.8-14.3,7.5-17.8.9,4.4.8,9.8.7,15.6-.1,7.5-.3,15.2,1.7,21.6,1.5,5,4.1,8.7,7.9,11.1,2,1.3,6.1,2.8,11.2,4.7,5.6,2.1,18.8,6.9,19.5,9.4,0,1.5-1,2.4-6.1,3-.9.1-1.9.2-3,.2h0c-3.1,0-6.7-.4-10.5-.9-3.9-.5-8-1-11.8-1s-7.6.7-10.1,2c-6.1,3.3-9.2,13.8-12,23.1-1.8,5.9-4,13.2-6,14.3-.6.3-1.4.5-2.2.5Z"/>
    <path d="M1142.6,26.9c0,2.7,0,5.7,0,8.7-.1,7.6-.3,15.5,1.7,22.2,1.6,5.4,4.6,9.5,8.8,12.2,2.2,1.4,6.4,2.9,11.6,4.9,4.5,1.7,14.6,5.4,17.7,7.7-.6.2-1.7.5-3.8.8-.8,0-1.7.1-2.7.1-3,0-6.5-.4-10.3-.9-4-.5-8.1-1-12-1s-8.3.7-11.1,2.3c-6.8,3.7-9.9,14.1-13,24.3-1.3,4.4-3.6,11.8-5.1,13.1-.2,0-.7.2-1.2.2-.6-2.6-.2-9.8,0-14.7.6-10.6,1.1-20.6-1.9-26.3-.8-1.6-2.7-3.8-10.5-8.7-1.5-1-3.5-2-6.1-3.2-1.7-.8-3.5-1.6-5.4-2.5-3-1.4-6.3-2.8-8.9-4.2h0c2.7,0,6,.3,9.4.7,3.9.4,8,.8,12,.8,7.5,0,12.6-1.5,16.1-4.7,4.4-4,5.8-8,7-11.8.3-.6.5-1.1.6-1.6.1-.4.2-.8.4-1.1.5-1,1.1-2.7,2.1-5.8.8-2.3,2.5-7.4,4.2-11.5M1144.9,17.1c-.2,0-.4,0-.6.1-3.4,1.5-7.3,13-9.7,20-.8,2.5-1.5,4.5-1.9,5.3-.3.6-.5,1.2-.6,1.6-.2.5-.3.9-.5,1.3-1.2,3.7-2.3,6.9-6,10.3-3.1,2.9-8.1,3.7-13.5,3.7s-7.8-.4-11.6-.8c-3.5-.4-6.9-.7-9.8-.7s-2.1,0-3,.2c-.4,0-.7,0-1.1.2-2,.4-3.3,1-3.5,1.8-.2.7.4,1.7,1.8,2.9,2.6,2.2,7.9,4.6,13,6.9,1.8.8,3.6,1.6,5.3,2.4,2.1,1,4.1,2,5.7,3,5.4,3.4,8.3,5.7,9.1,7.2,2.5,4.8,2,14.7,1.5,24.3-.4,8.1-.8,15.8.9,17.9.6.7,1.8,1,3,1s2.3-.3,3.1-.7c2.7-1.5,4.8-8.3,7-15.5,2.7-8.9,5.7-19,11.1-21.9,2.5-1.3,5.7-1.8,9.2-1.8s7.6.5,11.5,1c3.8.5,7.5.9,10.8.9s2.2,0,3.2-.2c4-.5,7.7-1.3,7.8-5,.1-3.5-12-8-20.8-11.2-4.8-1.8-9-3.3-10.8-4.5-3.7-2.4-5.9-5.9-7.1-10-1.8-6.1-1.7-13.6-1.6-21,.1-7,.3-13.6-1.4-18.6-.1,0-.2,0-.4,0h0Z"/>
  </g>
</svg>