<svg width="128" height="116" viewBox="0 0 128 116" fill="none" xmlns="http://www.w3.org/2000/svg">
<path d="M122.63 107.466H121.884V102.992C121.884 100.934 120.211 99.2651 118.15 99.2651V32.9132H122.257L127.111 16.5114H103.958V0.111328H22.5489V16.5131H0.889282L5.74418 32.9149H9.85126V99.2668C7.78932 99.2668 6.11724 100.936 6.11724 102.994V107.468H5.37111C3.30917 107.468 1.63709 109.137 1.63709 111.195V115.669H43.4625V111.195C43.4625 109.137 41.7904 107.468 39.7284 107.468H38.9823V102.994C38.9823 100.936 37.3102 99.2668 35.2483 99.2668H34.5022V62.736H34.6198C35.9406 48.1072 48.2585 36.6421 63.2568 36.6421C78.255 36.6421 90.5729 48.1056 91.8938 62.736H92.0114V99.3406C90.3074 99.6861 89.0235 101.191 89.0235 102.994V107.468H88.2774C86.2154 107.468 84.5434 109.137 84.5434 111.195V115.669H126.369V111.195C126.369 109.137 124.697 107.468 122.635 107.468L122.63 107.466Z" fill="#313131"/>
</svg>
