<svg width="1216" height="185" viewBox="0 0 1216 185" fill="none" xmlns="http://www.w3.org/2000/svg">
<path d="M1156.63 145.893V36.6904H1172.7V145.893H1156.63Z" fill="white"/>
<path d="M1104.49 148.078C1096.79 148.078 1089.93 146.518 1083.9 143.398C1077.97 140.174 1073.29 135.597 1069.86 129.669C1066.43 123.741 1064.71 116.721 1064.71 108.609V106.269C1064.71 98.1564 1066.43 91.1882 1069.86 85.364C1073.29 79.4359 1077.97 74.8597 1083.9 71.6356C1089.93 68.4115 1096.79 66.7995 1104.49 66.7995C1112.19 66.7995 1119.05 68.4115 1125.08 71.6356C1131.12 74.8597 1135.85 79.4359 1139.28 85.364C1142.71 91.1882 1144.43 98.1564 1144.43 106.269V108.609C1144.43 116.721 1142.71 123.741 1139.28 129.669C1135.85 135.597 1131.12 140.174 1125.08 143.398C1119.05 146.518 1112.19 148.078 1104.49 148.078ZM1104.49 133.725C1111.56 133.725 1117.28 131.489 1121.65 127.017C1126.12 122.441 1128.36 116.149 1128.36 108.141V106.737C1128.36 98.7284 1126.18 92.4882 1121.81 88.0161C1117.44 83.44 1111.67 81.1519 1104.49 81.1519C1097.52 81.1519 1091.8 83.44 1087.33 88.0161C1082.96 92.4882 1080.78 98.7284 1080.78 106.737V108.141C1080.78 116.149 1082.96 122.441 1087.33 127.017C1091.8 131.489 1097.52 133.725 1104.49 133.725Z" fill="white"/>
<path d="M1019.66 148.078C1012.27 148.078 1005.57 146.518 999.535 143.398C993.606 140.278 988.874 135.753 985.338 129.825C981.906 123.897 980.19 116.773 980.19 108.453V106.425C980.19 98.1044 981.906 91.0322 985.338 85.208C988.874 79.2798 993.606 74.7557 999.535 71.6356C1005.57 68.4115 1012.27 66.7995 1019.66 66.7995C1027.04 66.7995 1033.34 68.1515 1038.54 70.8556C1043.74 73.5597 1047.9 77.1478 1051.02 81.6199C1054.24 86.092 1056.32 91.0322 1057.26 96.4403L1041.66 99.7164C1041.14 96.2843 1040.04 93.1642 1038.38 90.3562C1036.72 87.5481 1034.38 85.312 1031.36 83.648C1028.34 81.9839 1024.55 81.1519 1019.97 81.1519C1015.5 81.1519 1011.44 82.1919 1007.8 84.272C1004.27 86.248 1001.46 89.1601 999.379 93.0082C997.299 96.7523 996.258 101.328 996.258 106.737V108.141C996.258 113.549 997.299 118.177 999.379 122.025C1001.46 125.873 1004.27 128.785 1007.8 130.761C1011.44 132.737 1015.5 133.725 1019.97 133.725C1026.73 133.725 1031.88 132.009 1035.42 128.577C1038.95 125.041 1041.19 120.569 1042.12 115.161L1057.72 118.749C1056.48 124.053 1054.24 128.941 1051.02 133.413C1047.9 137.885 1043.74 141.474 1038.54 144.178C1033.34 146.778 1027.04 148.078 1019.66 148.078Z" fill="white"/>
<path d="M931.789 148.078C924.093 148.078 917.229 146.518 911.197 143.398C905.269 140.174 900.589 135.597 897.156 129.669C893.724 123.741 892.008 116.721 892.008 108.609V106.269C892.008 98.1564 893.724 91.1882 897.156 85.364C900.589 79.4359 905.269 74.8597 911.197 71.6356C917.229 68.4115 924.093 66.7995 931.789 66.7995C939.486 66.7995 946.35 68.4115 952.382 71.6356C958.414 74.8597 963.146 79.4359 966.578 85.364C970.01 91.1882 971.727 98.1564 971.727 106.269V108.609C971.727 116.721 970.01 123.741 966.578 129.669C963.146 135.597 958.414 140.174 952.382 143.398C946.35 146.518 939.486 148.078 931.789 148.078ZM931.789 133.725C938.862 133.725 944.582 131.489 948.95 127.017C953.422 122.441 955.658 116.149 955.658 108.141V106.737C955.658 98.7284 953.474 92.4882 949.106 88.0161C944.738 83.44 938.966 81.1519 931.789 81.1519C924.821 81.1519 919.101 83.44 914.629 88.0161C910.261 92.4882 908.077 98.7284 908.077 106.737V108.141C908.077 116.149 910.261 122.441 914.629 127.017C919.101 131.489 924.821 133.725 931.789 133.725Z" fill="white"/>
<path d="M863.705 145.894C859.025 145.894 855.281 144.49 852.473 141.682C849.769 138.873 848.417 135.129 848.417 130.449V82.5559H827.2V68.9835H848.417V43.5548H864.485V68.9835H887.418V82.5559H864.485V127.641C864.485 130.761 865.941 132.321 868.853 132.321H884.922V145.894H863.705Z" fill="white"/>
<path d="M785.595 148.078C777.899 148.078 771.035 146.518 765.003 143.398C759.074 140.174 754.394 135.597 750.962 129.669C747.53 123.741 745.814 116.721 745.814 108.609V106.269C745.814 98.1564 747.53 91.1882 750.962 85.364C754.394 79.4359 759.074 74.8597 765.003 71.6356C771.035 68.4115 777.899 66.7995 785.595 66.7995C793.291 66.7995 800.156 68.4115 806.188 71.6356C812.22 74.8597 816.952 79.4359 820.384 85.364C823.816 91.1882 825.532 98.1564 825.532 106.269V108.609C825.532 116.721 823.816 123.741 820.384 129.669C816.952 135.597 812.22 140.174 806.188 143.398C800.156 146.518 793.291 148.078 785.595 148.078ZM785.595 133.725C792.667 133.725 798.388 131.489 802.756 127.017C807.228 122.441 809.464 116.149 809.464 108.141V106.737C809.464 98.7284 807.28 92.4882 802.912 88.0161C798.544 83.44 792.771 81.1519 785.595 81.1519C778.627 81.1519 772.907 83.44 768.435 88.0161C764.067 92.4882 761.883 98.7284 761.883 106.737V108.141C761.883 116.149 764.067 122.441 768.435 127.017C772.907 131.489 778.627 133.725 785.595 133.725Z" fill="white"/>
<path d="M699.771 145.893V68.9832H715.527V78.0315H718.023C719.271 74.8074 721.247 72.4673 723.951 71.0113C726.76 69.4512 730.192 68.6712 734.248 68.6712H743.452V83.1796H733.624C728.424 83.1796 724.159 84.6357 720.831 87.5478C717.503 90.3558 715.839 94.724 715.839 100.652V145.893H699.771Z" fill="white"/>
<path d="M607.633 177.095V68.9836H623.389V80.0599H625.885C627.861 76.6278 630.825 73.5597 634.778 70.8556C638.834 68.1515 644.606 66.7995 652.094 66.7995C658.542 66.7995 664.418 68.3595 669.723 71.4796C675.131 74.5997 679.447 79.1238 682.671 85.052C685.999 90.8762 687.663 97.9484 687.663 106.269V108.609C687.663 116.929 686.051 124.053 682.827 129.981C679.603 135.805 675.287 140.278 669.879 143.398C664.47 146.518 658.542 148.078 652.094 148.078C647.102 148.078 642.89 147.454 639.458 146.206C636.026 144.958 633.27 143.398 631.189 141.526C629.109 139.55 627.445 137.521 626.197 135.441H623.701V177.095H607.633ZM647.414 134.037C654.486 134.037 660.258 131.801 664.73 127.329C669.203 122.857 671.439 116.461 671.439 108.141V106.737C671.439 98.5204 669.151 92.1762 664.574 87.7041C660.102 83.232 654.382 80.9959 647.414 80.9959C640.55 80.9959 634.83 83.232 630.253 87.7041C625.781 92.1762 623.545 98.5204 623.545 106.737V108.141C623.545 116.461 625.781 122.857 630.253 127.329C634.83 131.801 640.55 134.037 647.414 134.037Z" fill="white"/>
<path d="M539.319 145.894C534.639 145.894 530.895 144.49 528.086 141.682C525.382 138.873 524.03 135.129 524.03 130.449V82.5559H502.814V68.9835H524.03V43.5548H540.099V68.9835H563.031V82.5559H540.099V127.641C540.099 130.761 541.555 132.321 544.467 132.321H560.535V145.894H539.319Z" fill="white"/>
<path d="M422.851 145.894V68.9837H438.608V80.528H441.104C442.56 77.408 445.16 74.4959 448.904 71.7918C452.648 69.0877 458.212 67.7357 465.596 67.7357C471.421 67.7357 476.569 69.0357 481.041 71.6358C485.617 74.2359 489.205 77.928 491.805 82.7121C494.405 87.3922 495.705 93.0604 495.705 99.7166V145.894H479.637V100.965C479.637 94.3084 477.973 89.4203 474.645 86.3002C471.317 83.0761 466.741 81.4641 460.916 81.4641C454.26 81.4641 448.904 83.6481 444.848 88.0163C440.896 92.3844 438.92 98.7286 438.92 107.049V145.894H422.851Z" fill="white"/>
<path d="M373.245 148.078C365.445 148.078 358.633 146.466 352.809 143.242C346.984 139.914 342.408 135.285 339.08 129.357C335.856 123.325 334.244 116.357 334.244 108.453V106.581C334.244 98.5724 335.856 91.6042 339.08 85.676C342.304 79.6439 346.776 75.0157 352.496 71.7916C358.321 68.4635 365.029 66.7995 372.621 66.7995C380.005 66.7995 386.453 68.4635 391.966 71.7916C397.582 75.0157 401.95 79.5399 405.07 85.364C408.19 91.1882 409.75 98.0004 409.75 105.801V111.885H350.624C350.832 118.645 353.068 124.053 357.333 128.109C361.701 132.061 367.109 134.037 373.557 134.037C379.589 134.037 384.113 132.685 387.129 129.981C390.25 127.277 392.642 124.157 394.306 120.621L407.566 127.485C406.11 130.397 403.978 133.465 401.17 136.689C398.466 139.914 394.878 142.618 390.406 144.802C385.933 146.986 380.213 148.078 373.245 148.078ZM350.78 99.5604H393.37C392.954 93.7363 390.874 89.2121 387.129 85.988C383.385 82.6599 378.497 80.9959 372.465 80.9959C366.433 80.9959 361.493 82.6599 357.645 85.988C353.9 89.2121 351.612 93.7363 350.78 99.5604Z" fill="white"/>
<path d="M304.314 145.893V36.6904H320.383V145.893H304.314Z" fill="white"/>
<path d="M244.385 148.078C238.873 148.078 233.933 147.142 229.564 145.27C225.3 143.398 221.868 140.642 219.268 137.001C216.772 133.361 215.524 128.941 215.524 123.741C215.524 118.437 216.772 114.069 219.268 110.637C221.868 107.101 225.352 104.449 229.72 102.681C234.193 100.912 239.237 100.028 244.853 100.028H268.253V95.0363C268.253 90.5642 266.901 86.9761 264.197 84.272C261.493 81.5679 257.333 80.2159 251.717 80.2159C246.205 80.2159 241.993 81.5159 239.081 84.116C236.169 86.7161 234.245 90.0961 233.309 94.2563L218.332 89.4201C219.58 85.26 221.556 81.5159 224.26 78.1878C227.068 74.7557 230.76 71.9996 235.337 69.9196C239.913 67.8395 245.425 66.7995 251.873 66.7995C261.857 66.7995 269.71 69.3476 275.43 74.4437C281.15 79.5399 284.01 86.7681 284.01 96.1283V127.797C284.01 130.917 285.466 132.477 288.378 132.477H294.93V145.894H282.918C279.278 145.894 276.314 144.958 274.026 143.086C271.738 141.214 270.594 138.666 270.594 135.441V134.973H268.253C267.421 136.533 266.173 138.353 264.509 140.434C262.845 142.514 260.401 144.334 257.177 145.894C253.953 147.35 249.689 148.078 244.385 148.078ZM246.725 134.817C253.173 134.817 258.373 132.997 262.325 129.357C266.277 125.613 268.253 120.517 268.253 114.069V112.509H245.789C241.525 112.509 238.093 113.445 235.493 115.317C232.892 117.085 231.592 119.737 231.592 123.273C231.592 126.809 232.944 129.617 235.649 131.697C238.353 133.777 242.045 134.817 246.725 134.817Z" fill="white"/>
<path d="M184.319 145.894C179.639 145.894 175.895 144.49 173.087 141.682C170.383 138.873 169.031 135.129 169.031 130.449V82.5559H147.814V68.9835H169.031V43.5548H185.099V68.9835H208.032V82.5559H185.099V127.641C185.099 130.761 186.556 132.321 189.468 132.321H205.536V145.894H184.319Z" fill="white"/>
<path d="M12.9663 64.4141C15.7825 67.222 19.5375 68.626 24.2312 68.626L72.236 68.626L66.8295 53.1822H28.612C25.6915 53.1822 24.2312 51.6223 24.2312 48.5023L24.2312 10.5081L8.89844 5.29102L8.89844 53.1822C8.89844 57.8622 10.2544 61.6061 12.9663 64.4141Z" fill="white"/>
<path d="M12.9663 141.627C15.7825 144.435 19.5375 145.839 24.2312 145.839H72.236L66.8295 130.395H28.612C25.6915 130.395 24.2312 128.835 24.2312 125.715L24.2312 87.721L8.89844 82.5039L8.89844 130.395C8.89844 135.075 10.2544 138.819 12.9663 141.627Z" fill="white"/>
</svg>
